<svg width="46" height="46" fill="none" xmlns="http://www.w3.org/2000/svg"><path fill-rule="evenodd" clip-rule="evenodd" d="M9 .6a2.8 2.8 0 0 1 2.8 2.8v2.8h2.8a2.8 2.8 0 1 1 0 5.6h-2.8v2.8a2.8 2.8 0 1 1-5.6 0v-2.8H3.4a2.8 2.8 0 0 1 0-5.6h2.8V3.4A2.8 2.8 0 0 1 9 .6Zm0 28a2.8 2.8 0 0 1 2.8 2.8v2.8h2.8a2.8 2.8 0 1 1 0 5.6h-2.8v2.8a2.8 2.8 0 1 1-5.6 0v-2.8H3.4a2.8 2.8 0 1 1 0-5.6h2.8v-2.8A2.8 2.8 0 0 1 9 28.6ZM28.6.6a2.8 2.8 0 0 1 2.707 2.083l3.301 12.474L44 20.575a2.8 2.8 0 0 1 0 4.85l-9.39 5.418-3.302 12.473a2.8 2.8 0 0 1-5.414 0l-3.302-12.473-9.39-5.418a2.8 2.8 0 0 1 0-4.85l9.39-5.418 3.302-12.474A2.8 2.8 0 0 1 28.6.6Z" fill="#FF7500"/></svg>