<svg width="56" height="56" viewBox="0 0 56 56" fill="none" xmlns="http://www.w3.org/2000/svg">
<path fill-rule="evenodd" clip-rule="evenodd" d="M31.6418 2.92954C32.8074 3.29696 33.6 4.37789 33.6 5.60001V19.6L44.8 19.6C45.8441 19.6 46.8014 20.1809 47.2835 21.1069C47.7657 22.033 47.6926 23.1504 47.0939 24.0057L27.4939 52.0057C26.793 53.0069 25.5238 53.4379 24.3582 53.0705C23.1926 52.7031 22.4 51.6221 22.4 50.4L22.4 36.4H11.2C10.156 36.4 9.19862 35.8191 8.71646 34.8931C8.23431 33.967 8.30743 32.8496 8.90615 31.9943L28.5062 3.99431C29.207 2.99312 30.4762 2.56213 31.6418 2.92954Z" fill="#FF7500"/>
</svg>
