<svg width="227" height="60" fill="none" xmlns="http://www.w3.org/2000/svg"><g clip-path="url(#a)"><path d="M19 0 0 13.646V48.65l10.534 10.534-.232-36.764L19 15.308l8.698 7.112-.232 36.764L38 48.65V13.646L19 0Z" fill="#252420"/><path d="M25.994 29.592 19 33.791l-6.994-4.199v12.259L19 46.055l6.994-4.204V29.592Z" fill="#FF7401"/></g><path d="M62.688 35.936h-6.266l-1.219 4.656h-4.86l7.11-22.75h4.203l7.157 22.75h-4.907l-1.218-4.656Zm-5.266-3.828h4.25l-2.125-8.11-2.125 8.11Zm18.922 1.968-1.188 1.329v5.187h-4.422v-24h4.422v12.969l.547-.813 3.063-5.062h5.265l-4.906 6.969 5.375 9.937h-5.063l-3.093-6.516Zm17.734 6.516c-.125-.26-.25-.698-.375-1.312-.791 1.083-1.865 1.625-3.219 1.625-1.416 0-2.593-.47-3.53-1.407-.928-.937-1.391-2.15-1.391-3.64 0-1.771.562-3.14 1.687-4.11 1.135-.968 2.766-1.463 4.89-1.484h1.344v-1.36c0-.76-.13-1.296-.39-1.609-.26-.312-.64-.469-1.14-.469-1.105 0-1.657.646-1.657 1.938h-4.422c0-1.563.583-2.849 1.75-3.86 1.177-1.02 2.662-1.53 4.453-1.53 1.854 0 3.287.484 4.297 1.452 1.02.959 1.531 2.334 1.531 4.125v7.954c.021 1.458.23 2.599.625 3.421v.266h-4.453Zm-2.61-3.156c.49 0 .907-.1 1.25-.297.344-.198.6-.432.766-.703V32.92h-1.062c-.75 0-1.344.24-1.781.719-.428.48-.641 1.12-.641 1.922 0 1.25.49 1.875 1.469 1.875Zm9.048-5.813c0-2.77.468-4.838 1.406-6.203.937-1.364 2.302-2.047 4.094-2.047 1.302 0 2.385.563 3.25 1.688v-8.469h4.453v24h-4.016l-.203-1.719c-.906 1.355-2.073 2.032-3.5 2.032-1.771 0-3.125-.678-4.062-2.032-.928-1.354-1.402-3.343-1.422-5.968v-1.282Zm4.437 1.11c0 1.666.177 2.833.531 3.5.355.656.954.984 1.797.984.875 0 1.537-.39 1.985-1.172v-7.719c-.438-.833-1.094-1.25-1.969-1.25-.813 0-1.406.329-1.781.985-.375.656-.563 1.823-.563 3.5v1.172Zm18.859 8.172c-2.27 0-4.041-.678-5.312-2.032s-1.906-3.291-1.906-5.812v-1.344c0-2.667.583-4.724 1.75-6.172 1.166-1.448 2.838-2.172 5.015-2.172 2.125 0 3.724.683 4.797 2.047 1.073 1.354 1.62 3.365 1.641 6.031v2.172H121c.062 1.25.339 2.167.828 2.75.49.573 1.245.86 2.266.86 1.479 0 2.713-.505 3.703-1.516l1.734 2.672c-.541.75-1.328 1.36-2.359 1.828-1.031.458-2.151.688-3.36.688Zm-2.781-10.375h4.422v-.407c-.021-1.01-.187-1.776-.5-2.297-.312-.52-.854-.78-1.625-.78s-1.333.275-1.687.827c-.344.552-.547 1.438-.61 2.657Zm15.422-6.844.125 1.562c.99-1.25 2.297-1.875 3.922-1.875 1.688 0 2.88.76 3.578 2.282.969-1.521 2.349-2.282 4.141-2.282 2.958 0 4.474 2.047 4.547 6.14v11.08h-4.422V29.794c0-.979-.136-1.677-.406-2.094-.271-.416-.73-.625-1.376-.625-.822 0-1.437.506-1.843 1.516l.031.531v11.47h-4.422V29.825c0-.968-.13-1.666-.39-2.093-.261-.438-.724-.657-1.391-.657-.761 0-1.365.412-1.813 1.235v12.281h-4.422V23.686h4.141Z" fill="#252420"/><path d="m160.094 23.686.125 1.672c1-1.323 2.307-1.985 3.922-1.985 2.906 0 4.401 2.037 4.484 6.11v11.11h-4.437V29.81c0-.959-.146-1.651-.438-2.078-.281-.438-.781-.657-1.5-.657-.802 0-1.427.412-1.875 1.235v12.281h-4.437V23.686h4.156Zm19.734 16.906c-.125-.26-.25-.698-.375-1.312-.792 1.083-1.864 1.625-3.219 1.625-1.416 0-2.593-.47-3.531-1.407-.927-.937-1.391-2.15-1.391-3.64 0-1.771.563-3.14 1.688-4.11 1.135-.968 2.766-1.463 4.891-1.484h1.343v-1.36c0-.76-.13-1.296-.39-1.609-.261-.312-.641-.469-1.141-.469-1.104 0-1.656.646-1.656 1.938h-4.422c0-1.563.583-2.849 1.75-3.86 1.177-1.02 2.661-1.53 4.453-1.53 1.854 0 3.287.484 4.297 1.452 1.021.959 1.531 2.334 1.531 4.125v7.954c.021 1.458.229 2.599.625 3.421v.266h-4.453Zm-2.609-3.156c.489 0 .906-.1 1.25-.297.343-.198.599-.432.765-.703V32.92h-1.062c-.75 0-1.344.24-1.781.719-.427.48-.641 1.12-.641 1.922 0 1.25.49 1.875 1.469 1.875Zm17.125-1.375c0-.375-.183-.719-.547-1.031-.354-.323-1.151-.756-2.391-1.297-1.823-.74-3.078-1.505-3.765-2.297-.677-.792-1.016-1.776-1.016-2.953 0-1.48.531-2.698 1.594-3.657 1.073-.968 2.489-1.453 4.25-1.453 1.854 0 3.338.48 4.453 1.438 1.114.958 1.672 2.245 1.672 3.86h-4.422c0-1.376-.573-2.063-1.719-2.063-.469 0-.854.145-1.156.437-.302.292-.453.698-.453 1.219 0 .375.166.708.5 1 .333.281 1.12.687 2.359 1.219 1.802.666 3.073 1.411 3.813 2.234.75.813 1.125 1.87 1.125 3.172 0 1.51-.568 2.724-1.703 3.64-1.136.917-2.626 1.376-4.469 1.376-1.24 0-2.334-.24-3.281-.72-.948-.489-1.693-1.166-2.235-2.03a5.25 5.25 0 0 1-.797-2.797h4.203c.021.77.198 1.349.532 1.734.343.386.901.578 1.671.578 1.188 0 1.782-.536 1.782-1.61Zm11.359-10.89c.958-1.199 2.136-1.798 3.531-1.798 1.542 0 2.714.542 3.516 1.625.802 1.084 1.208 2.698 1.219 4.844v10.75h-4.438V29.89c0-.99-.156-1.703-.469-2.14-.302-.449-.796-.673-1.484-.673-.802 0-1.427.37-1.875 1.11v12.406h-4.422v-24h4.422v8.578Zm19.781 2.78-1.468-.125c-1.209 0-2.026.532-2.454 1.594v11.172h-4.437V23.686h4.172l.125 1.828c.698-1.427 1.661-2.14 2.89-2.14.5 0 .907.067 1.219.202l-.047 4.375Z" fill="#FF7500"/><defs><clipPath id="a"><path fill="#fff" d="M0 0h38v59.184H0z"/></clipPath></defs></svg>